<svg width="70" height="70" viewBox="0 0 70 70" fill="none" xmlns="http://www.w3.org/2000/svg">
<g filter="url(#filter0_dd)">
<path d="M18.5355 33.1213C17.364 31.9497 17.364 30.0503 18.5355 28.8787L32.8787 14.5355C34.0503 13.364 35.9497 13.364 37.1213 14.5355L51.4645 28.8787C52.636 30.0503 52.636 31.9497 51.4645 33.1213L37.1213 47.4645C35.9497 48.636 34.0503 48.636 32.8787 47.4645L18.5355 33.1213Z" fill="url(#paint0_linear)" stroke="white" stroke-width="2"/>
<path fill-rule="evenodd" clip-rule="evenodd" d="M37.5019 27.31H42.2686V25.9654H37.5019V27.31ZM41.8484 28.4388C41.2748 28.189 40.6303 28.0636 39.9138 28.0636C38.7084 28.0636 37.7294 28.4347 36.9727 29.1718C36.4062 29.6155 35.8403 30.9729 35.8403 32.3576C35.8403 33.8339 36.2573 34.9009 37.0965 35.5558C37.9316 36.2117 38.8978 36.5386 39.9932 36.5386C41.3193 36.5386 42.3511 36.15 43.0877 35.3738C43.5597 34.8845 43.8264 34.4023 43.8847 33.9295H41.6886C41.5616 34.1638 41.4135 34.3468 41.2452 34.4794C40.9393 34.7231 40.5403 34.8454 40.0525 34.8454C39.5889 34.8454 39.1942 34.7447 38.8661 34.5442C38.3242 34.2224 38.0406 33.6601 38.0046 32.8593H43.9979C44.0074 32.1695 43.9841 31.639 43.9259 31.2731C43.8264 30.647 43.6084 30.096 43.2687 29.621C42.8962 29.0824 42.4231 28.6876 41.8484 28.4388ZM34.2581 26.6131C33.6919 25.8647 32.732 25.4812 31.3752 25.4617H26V36.2661H31.0122C31.5774 36.2661 32.1002 36.2189 32.5838 36.1212C33.0675 36.0225 33.4855 35.8426 33.8401 35.5784C34.1555 35.3481 34.4179 35.0644 34.6275 34.7282C34.9587 34.2204 35.1238 33.6457 35.1238 33.0053C35.1238 32.3843 34.9788 31.8559 34.691 31.4221C34.3999 30.9873 33.9724 30.6696 33.4051 30.4681C33.7787 30.2831 34.0613 30.0775 34.2539 29.8534C34.5978 29.4524 34.7682 28.921 34.7682 28.262C34.7682 27.6215 34.5978 27.0726 34.2581 26.6131ZM30.6387 27.3378H28.2172V29.7218H30.9223C31.4038 29.7218 31.7965 29.6323 32.0992 29.4535C32.3997 29.2746 32.5511 28.9579 32.5511 28.5056C32.5511 28.0009 32.3521 27.6688 31.9542 27.5064C31.6092 27.3943 31.171 27.3378 30.6387 27.3378ZM39.9149 29.7876C39.3646 29.7876 38.9349 29.9397 38.6312 30.244C38.3274 30.5483 38.1359 30.9605 38.0575 31.4807H41.7649C41.7257 30.9256 41.5331 30.5061 41.1923 30.2173C40.8473 29.9305 40.4229 29.7876 39.9149 29.7876ZM28.2172 31.5095H30.9562C31.4324 31.5136 31.8039 31.5753 32.0685 31.6925C32.5415 31.9032 32.7765 32.2887 32.7765 32.8521C32.7765 33.5162 32.5331 33.9644 32.0452 34.2008C31.7774 34.3273 31.4007 34.391 30.9181 34.391H28.2172V31.5095Z" fill="white"/>
</g>
<defs>
<filter id="filter0_dd" x="-1" y="-1" width="72" height="72" filterUnits="userSpaceOnUse" color-interpolation-filters="sRGB">
<feFlood flood-opacity="0" result="BackgroundImageFix"/>
<feColorMatrix in="SourceAlpha" type="matrix" values="0 0 0 0 0 0 0 0 0 0 0 0 0 0 0 0 0 0 127 0" result="hardAlpha"/>
<feOffset dy="1"/>
<feGaussianBlur stdDeviation="0.5"/>
<feColorMatrix type="matrix" values="0 0 0 0 0.215686 0 0 0 0 0.376471 0 0 0 0 0.427451 0 0 0 0.08 0"/>
<feBlend mode="normal" in2="BackgroundImageFix" result="effect1_dropShadow"/>
<feColorMatrix in="SourceAlpha" type="matrix" values="0 0 0 0 0 0 0 0 0 0 0 0 0 0 0 0 0 0 127 0" result="hardAlpha"/>
<feOffset dy="4"/>
<feGaussianBlur stdDeviation="8"/>
<feColorMatrix type="matrix" values="0 0 0 0 0.215686 0 0 0 0 0.376471 0 0 0 0 0.427451 0 0 0 0.16 0"/>
<feBlend mode="normal" in2="effect1_dropShadow" result="effect2_dropShadow"/>
<feBlend mode="normal" in="SourceGraphic" in2="effect2_dropShadow" result="shape"/>
</filter>
<linearGradient id="paint0_linear" x1="35" y1="11" x2="35" y2="51" gradientUnits="userSpaceOnUse">
<stop stop-color="#7DE3B8"/>
<stop offset="1" stop-color="#2E965E"/>
</linearGradient>
</defs>
</svg>
