<svg width="70" height="70" viewBox="0 0 70 70" fill="none" xmlns="http://www.w3.org/2000/svg">
<g filter="url(#filter0_dd)">
<path d="M18.5355 33.1213C17.364 31.9497 17.364 30.0503 18.5355 28.8787L32.8787 14.5355C34.0503 13.364 35.9497 13.364 37.1213 14.5355L51.4645 28.8787C52.636 30.0503 52.636 31.9497 51.4645 33.1213L37.1213 47.4645C35.9497 48.636 34.0503 48.636 32.8787 47.4645L18.5355 33.1213Z" fill="url(#paint0_linear)" stroke="white" stroke-width="2"/>
<path fill-rule="evenodd" clip-rule="evenodd" d="M35 39C39.4183 39 43 35.4183 43 31C43 26.5817 39.4183 23 35 23C30.5817 23 27 26.5817 27 31C27 35.4183 30.5817 39 35 39ZM40.2753 26.6607C40.2487 26.6988 39.1498 28.2688 36.4697 29.3633C36.6282 29.6891 36.7818 30.0207 36.9236 30.3539C36.974 30.4735 37.0232 30.5907 37.0712 30.7078C39.3732 30.4182 41.6418 30.8906 41.8212 30.928C41.8247 30.9287 41.8274 30.9293 41.8293 30.9297C41.8137 29.3102 41.234 27.8244 40.2753 26.6607ZM37.4876 31.7859C38.3838 34.2485 38.7479 36.2539 38.8174 36.6656C40.3515 35.6305 41.441 33.9868 41.7449 32.0828C41.6043 32.0375 39.6928 31.4324 37.4876 31.7859ZM37.6669 37.2899C37.5658 36.693 37.1689 34.6008 36.2075 32.1024C36.202 32.1042 36.1964 32.1059 36.1909 32.1077C36.1813 32.1107 36.1717 32.1137 36.1622 32.1172C32.1312 33.5224 30.8148 36.3542 30.8006 36.3852C31.9604 37.2871 33.4152 37.8313 34.9996 37.8313C35.9458 37.8313 36.847 37.6386 37.6669 37.2899ZM39.5116 25.8727C38.3088 24.8121 36.7294 24.1688 34.9996 24.1688C34.4445 24.1688 33.9058 24.236 33.3898 24.3602C33.3926 24.364 33.3963 24.3689 33.4009 24.3751C33.5627 24.5918 34.8076 26.2591 35.9438 28.3453C38.5006 27.3868 39.4793 25.921 39.5116 25.8727ZM35.7418 30.9703C35.5704 30.5821 35.3832 30.193 35.1875 29.8094C31.6698 30.8625 28.2942 30.7867 28.1731 30.7821C28.1725 30.8048 28.1717 30.8274 28.171 30.8499C28.1693 30.8998 28.1676 30.9494 28.1676 31C28.1676 32.7551 28.8298 34.3551 29.9181 35.5649C29.9158 35.5613 31.7854 32.2445 35.4723 31.0524C35.5614 31.0227 35.652 30.9961 35.7418 30.9703ZM34.6215 28.7574C33.439 26.6566 32.1757 24.9422 32.0846 24.8207C30.1794 25.7203 28.7575 27.4758 28.3141 29.5914L28.3207 29.5915C28.5542 29.5936 31.3758 29.6198 34.6215 28.7574Z" fill="white"/>
</g>
<defs>
<filter id="filter0_dd" x="-1" y="-1" width="72" height="72" filterUnits="userSpaceOnUse" color-interpolation-filters="sRGB">
<feFlood flood-opacity="0" result="BackgroundImageFix"/>
<feColorMatrix in="SourceAlpha" type="matrix" values="0 0 0 0 0 0 0 0 0 0 0 0 0 0 0 0 0 0 127 0" result="hardAlpha"/>
<feOffset dy="1"/>
<feGaussianBlur stdDeviation="0.5"/>
<feColorMatrix type="matrix" values="0 0 0 0 0.215686 0 0 0 0 0.376471 0 0 0 0 0.427451 0 0 0 0.08 0"/>
<feBlend mode="normal" in2="BackgroundImageFix" result="effect1_dropShadow"/>
<feColorMatrix in="SourceAlpha" type="matrix" values="0 0 0 0 0 0 0 0 0 0 0 0 0 0 0 0 0 0 127 0" result="hardAlpha"/>
<feOffset dy="4"/>
<feGaussianBlur stdDeviation="8"/>
<feColorMatrix type="matrix" values="0 0 0 0 0.215686 0 0 0 0 0.376471 0 0 0 0 0.427451 0 0 0 0.16 0"/>
<feBlend mode="normal" in2="effect1_dropShadow" result="effect2_dropShadow"/>
<feBlend mode="normal" in="SourceGraphic" in2="effect2_dropShadow" result="shape"/>
</filter>
<linearGradient id="paint0_linear" x1="35" y1="11" x2="35" y2="51" gradientUnits="userSpaceOnUse">
<stop stop-color="#7DE3B8"/>
<stop offset="1" stop-color="#2E965E"/>
</linearGradient>
</defs>
</svg>
