<svg width="70" height="70" viewBox="0 0 70 70" fill="none" xmlns="http://www.w3.org/2000/svg">
<g filter="url(#filter0_dd)">
<path d="M18.5355 33.1213C17.364 31.9497 17.364 30.0503 18.5355 28.8787L32.8787 14.5355C34.0503 13.364 35.9497 13.364 37.1213 14.5355L51.4645 28.8787C52.636 30.0503 52.636 31.9497 51.4645 33.1213L37.1213 47.4645C35.9497 48.636 34.0503 48.636 32.8787 47.4645L18.5355 33.1213Z" fill="url(#paint0_linear)" stroke="white" stroke-width="2"/>
<path fill-rule="evenodd" clip-rule="evenodd" d="M32 40C33.6569 40 35 38.6569 35 37V34H32C30.3431 34 29 35.3431 29 37C29 38.6569 30.3431 40 32 40ZM29 31C29 32.6569 30.3431 34 32 34H35V28H32C30.3431 28 29 29.3431 29 31ZM29 25C29 26.6569 30.3431 28 32 28H35V22H32C30.3431 22 29 23.3431 29 25ZM35 22V28H38C39.6569 28 41 26.6569 41 25C41 23.3431 39.6569 22 38 22H35ZM41 31C41 29.3431 39.6569 28 38 28C36.3431 28 35 29.3431 35 31C35 32.6569 36.3431 34 38 34C39.6569 34 41 32.6569 41 31Z" fill="white"/>
</g>
<defs>
<filter id="filter0_dd" x="-1" y="-1" width="72" height="72" filterUnits="userSpaceOnUse" color-interpolation-filters="sRGB">
<feFlood flood-opacity="0" result="BackgroundImageFix"/>
<feColorMatrix in="SourceAlpha" type="matrix" values="0 0 0 0 0 0 0 0 0 0 0 0 0 0 0 0 0 0 127 0" result="hardAlpha"/>
<feOffset dy="1"/>
<feGaussianBlur stdDeviation="0.5"/>
<feColorMatrix type="matrix" values="0 0 0 0 0.215686 0 0 0 0 0.376471 0 0 0 0 0.427451 0 0 0 0.08 0"/>
<feBlend mode="normal" in2="BackgroundImageFix" result="effect1_dropShadow"/>
<feColorMatrix in="SourceAlpha" type="matrix" values="0 0 0 0 0 0 0 0 0 0 0 0 0 0 0 0 0 0 127 0" result="hardAlpha"/>
<feOffset dy="4"/>
<feGaussianBlur stdDeviation="8"/>
<feColorMatrix type="matrix" values="0 0 0 0 0.215686 0 0 0 0 0.376471 0 0 0 0 0.427451 0 0 0 0.16 0"/>
<feBlend mode="normal" in2="effect1_dropShadow" result="effect2_dropShadow"/>
<feBlend mode="normal" in="SourceGraphic" in2="effect2_dropShadow" result="shape"/>
</filter>
<linearGradient id="paint0_linear" x1="35" y1="11" x2="35" y2="51" gradientUnits="userSpaceOnUse">
<stop stop-color="#7DE3B8"/>
<stop offset="1" stop-color="#2E965E"/>
</linearGradient>
</defs>
</svg>
