<svg width="87" height="56" viewBox="0 0 87 56" fill="none" xmlns="http://www.w3.org/2000/svg">
<g filter="url(#filter0_dd)">
<path fill-rule="evenodd" clip-rule="evenodd" d="M29.8787 26.1213C31.0503 24.9497 31.0503 23.0503 29.8787 21.8787L21.1213 13.1213C19.2314 11.2314 16 12.5699 16 15.2426V32.7574C16 35.4301 19.2314 36.7686 21.1213 34.8787L29.8787 26.1213Z" fill="url(#paint0_linear)"/>
<path d="M29.5251 22.2322L20.7678 13.4749C19.1929 11.9 16.5 13.0154 16.5 15.2426V32.7574C16.5 34.9846 19.1929 36.1 20.7678 34.5251L29.5251 25.7678C30.5014 24.7915 30.5014 23.2085 29.5251 22.2322Z" stroke="white"/>
</g>
<g filter="url(#filter1_dd)">
<path fill-rule="evenodd" clip-rule="evenodd" d="M49.8787 26.1213C51.0503 24.9497 51.0503 23.0503 49.8787 21.8787L41.1213 13.1213C39.2314 11.2314 36 12.5699 36 15.2426V32.7574C36 35.4301 39.2314 36.7686 41.1213 34.8787L49.8787 26.1213Z" fill="url(#paint1_linear)"/>
<path d="M49.5251 22.2322L40.7678 13.4749C39.1929 11.9 36.5 13.0154 36.5 15.2426V32.7574C36.5 34.9846 39.1929 36.1 40.7678 34.5251L49.5251 25.7678C50.5014 24.7915 50.5014 23.2085 49.5251 22.2322Z" stroke="white"/>
</g>
<g filter="url(#filter2_dd)">
<path fill-rule="evenodd" clip-rule="evenodd" d="M69.8787 26.1213C71.0503 24.9497 71.0503 23.0503 69.8787 21.8787L61.1213 13.1213C59.2314 11.2314 56 12.5699 56 15.2426V32.7574C56 35.4301 59.2314 36.7686 61.1213 34.8787L69.8787 26.1213Z" fill="url(#paint2_linear)"/>
<path d="M69.5251 22.2322L60.7678 13.4749C59.1929 11.9 56.5 13.0154 56.5 15.2426V32.7574C56.5 34.9846 59.1929 36.1 60.7678 34.5251L69.5251 25.7678C70.5014 24.7915 70.5014 23.2085 69.5251 22.2322Z" stroke="white"/>
</g>
<defs>
<filter id="filter0_dd" x="0" y="0.236816" width="46.7574" height="55.5268" filterUnits="userSpaceOnUse" color-interpolation-filters="sRGB">
<feFlood flood-opacity="0" result="BackgroundImageFix"/>
<feColorMatrix in="SourceAlpha" type="matrix" values="0 0 0 0 0 0 0 0 0 0 0 0 0 0 0 0 0 0 127 0" result="hardAlpha"/>
<feOffset dy="1"/>
<feGaussianBlur stdDeviation="0.5"/>
<feColorMatrix type="matrix" values="0 0 0 0 0.215686 0 0 0 0 0.376471 0 0 0 0 0.427451 0 0 0 0.08 0"/>
<feBlend mode="normal" in2="BackgroundImageFix" result="effect1_dropShadow"/>
<feColorMatrix in="SourceAlpha" type="matrix" values="0 0 0 0 0 0 0 0 0 0 0 0 0 0 0 0 0 0 127 0" result="hardAlpha"/>
<feOffset dy="4"/>
<feGaussianBlur stdDeviation="8"/>
<feColorMatrix type="matrix" values="0 0 0 0 0.215686 0 0 0 0 0.376471 0 0 0 0 0.427451 0 0 0 0.16 0"/>
<feBlend mode="normal" in2="effect1_dropShadow" result="effect2_dropShadow"/>
<feBlend mode="normal" in="SourceGraphic" in2="effect2_dropShadow" result="shape"/>
</filter>
<filter id="filter1_dd" x="20" y="0.236816" width="46.7574" height="55.5268" filterUnits="userSpaceOnUse" color-interpolation-filters="sRGB">
<feFlood flood-opacity="0" result="BackgroundImageFix"/>
<feColorMatrix in="SourceAlpha" type="matrix" values="0 0 0 0 0 0 0 0 0 0 0 0 0 0 0 0 0 0 127 0" result="hardAlpha"/>
<feOffset dy="1"/>
<feGaussianBlur stdDeviation="0.5"/>
<feColorMatrix type="matrix" values="0 0 0 0 0.215686 0 0 0 0 0.376471 0 0 0 0 0.427451 0 0 0 0.08 0"/>
<feBlend mode="normal" in2="BackgroundImageFix" result="effect1_dropShadow"/>
<feColorMatrix in="SourceAlpha" type="matrix" values="0 0 0 0 0 0 0 0 0 0 0 0 0 0 0 0 0 0 127 0" result="hardAlpha"/>
<feOffset dy="4"/>
<feGaussianBlur stdDeviation="8"/>
<feColorMatrix type="matrix" values="0 0 0 0 0.215686 0 0 0 0 0.376471 0 0 0 0 0.427451 0 0 0 0.16 0"/>
<feBlend mode="normal" in2="effect1_dropShadow" result="effect2_dropShadow"/>
<feBlend mode="normal" in="SourceGraphic" in2="effect2_dropShadow" result="shape"/>
</filter>
<filter id="filter2_dd" x="40" y="0.236816" width="46.7574" height="55.5268" filterUnits="userSpaceOnUse" color-interpolation-filters="sRGB">
<feFlood flood-opacity="0" result="BackgroundImageFix"/>
<feColorMatrix in="SourceAlpha" type="matrix" values="0 0 0 0 0 0 0 0 0 0 0 0 0 0 0 0 0 0 127 0" result="hardAlpha"/>
<feOffset dy="1"/>
<feGaussianBlur stdDeviation="0.5"/>
<feColorMatrix type="matrix" values="0 0 0 0 0.215686 0 0 0 0 0.376471 0 0 0 0 0.427451 0 0 0 0.08 0"/>
<feBlend mode="normal" in2="BackgroundImageFix" result="effect1_dropShadow"/>
<feColorMatrix in="SourceAlpha" type="matrix" values="0 0 0 0 0 0 0 0 0 0 0 0 0 0 0 0 0 0 127 0" result="hardAlpha"/>
<feOffset dy="4"/>
<feGaussianBlur stdDeviation="8"/>
<feColorMatrix type="matrix" values="0 0 0 0 0.215686 0 0 0 0 0.376471 0 0 0 0 0.427451 0 0 0 0.16 0"/>
<feBlend mode="normal" in2="effect1_dropShadow" result="effect2_dropShadow"/>
<feBlend mode="normal" in="SourceGraphic" in2="effect2_dropShadow" result="shape"/>
</filter>
<linearGradient id="paint0_linear" x1="24" y1="8" x2="24" y2="40" gradientUnits="userSpaceOnUse">
<stop stop-color="#7DE3B8"/>
<stop offset="1" stop-color="#2E965E"/>
</linearGradient>
<linearGradient id="paint1_linear" x1="44" y1="8" x2="44" y2="40" gradientUnits="userSpaceOnUse">
<stop stop-color="#7DE3B8"/>
<stop offset="1" stop-color="#2E965E"/>
</linearGradient>
<linearGradient id="paint2_linear" x1="64" y1="8" x2="64" y2="40" gradientUnits="userSpaceOnUse">
<stop stop-color="#7DE3B8"/>
<stop offset="1" stop-color="#2E965E"/>
</linearGradient>
</defs>
</svg>
