<svg width="55" height="24" viewBox="0 0 55 24" fill="none" xmlns="http://www.w3.org/2000/svg">
<mask id="path-1-inside-1" fill="white">
<path fill-rule="evenodd" clip-rule="evenodd" d="M1.12136 14.1215C-0.0502162 12.9499 -0.0502186 11.0504 1.12135 9.87887L9.87872 1.12151C11.7686 -0.768384 15 0.570116 15 3.24283V20.7575C15 23.4303 11.7686 24.7688 9.87872 22.8789L1.12136 14.1215ZM21.1214 9.87887C19.9498 11.0504 19.9498 12.9499 21.1214 14.1215L29.8787 22.8789C31.7686 24.7688 35 23.4303 35 20.7575V3.24283C35 0.570116 31.7686 -0.768384 29.8787 1.12151L21.1214 9.87887ZM41.1214 9.87887C39.9498 11.0504 39.9498 12.9499 41.1214 14.1215L49.8787 22.8789C51.7686 24.7688 55 23.4303 55 20.7575V3.24283C55 0.570117 51.7686 -0.768383 49.8787 1.12151L41.1214 9.87887Z"/>
</mask>
<path fill-rule="evenodd" clip-rule="evenodd" d="M1.12136 14.1215C-0.0502162 12.9499 -0.0502186 11.0504 1.12135 9.87887L9.87872 1.12151C11.7686 -0.768384 15 0.570116 15 3.24283V20.7575C15 23.4303 11.7686 24.7688 9.87872 22.8789L1.12136 14.1215ZM21.1214 9.87887C19.9498 11.0504 19.9498 12.9499 21.1214 14.1215L29.8787 22.8789C31.7686 24.7688 35 23.4303 35 20.7575V3.24283C35 0.570116 31.7686 -0.768384 29.8787 1.12151L21.1214 9.87887ZM41.1214 9.87887C39.9498 11.0504 39.9498 12.9499 41.1214 14.1215L49.8787 22.8789C51.7686 24.7688 55 23.4303 55 20.7575V3.24283C55 0.570117 51.7686 -0.768383 49.8787 1.12151L41.1214 9.87887Z" fill="url(#paint0_linear)"/>
<path d="M1.12135 9.87887L0.414247 9.17176L0.414247 9.17176L1.12135 9.87887ZM1.12136 14.1215L1.82846 13.4144L1.82846 13.4144L1.12136 14.1215ZM9.87872 1.12151L10.5858 1.82862L10.5858 1.82862L9.87872 1.12151ZM9.87872 22.8789L10.5858 22.1718L10.5858 22.1718L9.87872 22.8789ZM21.1214 14.1215L21.8285 13.4144L21.8285 13.4144L21.1214 14.1215ZM21.1214 9.87887L21.8285 10.586L21.8285 10.586L21.1214 9.87887ZM29.8787 22.8789L30.5858 22.1718L30.5858 22.1718L29.8787 22.8789ZM29.8787 1.12151L29.1716 0.414403L29.1716 0.414403L29.8787 1.12151ZM41.1214 14.1215L40.4142 14.8286L40.4142 14.8286L41.1214 14.1215ZM41.1214 9.87887L41.8285 10.586L41.8285 10.586L41.1214 9.87887ZM49.8787 22.8789L50.5858 22.1718L50.5858 22.1718L49.8787 22.8789ZM49.8787 1.12151L49.1716 0.414404L49.1716 0.414405L49.8787 1.12151ZM0.414247 9.17176C-1.14785 10.7339 -1.14785 13.2665 0.41425 14.8286L1.82846 13.4144C1.04741 12.6334 1.04741 11.367 1.82846 10.586L0.414247 9.17176ZM9.17161 0.414403L0.414247 9.17176L1.82846 10.586L10.5858 1.82862L9.17161 0.414403ZM16 3.24283C16 -0.320788 11.6915 -2.10546 9.17161 0.414403L10.5858 1.82862C11.8458 0.568687 14 1.46102 14 3.24283H16ZM16 20.7575V3.24283H14V20.7575H16ZM9.17161 23.586C11.6915 26.1058 16 24.3212 16 20.7575H14C14 22.5394 11.8458 23.4317 10.5858 22.1718L9.17161 23.586ZM0.41425 14.8286L9.17161 23.586L10.5858 22.1718L1.82846 13.4144L0.41425 14.8286ZM21.8285 13.4144C21.0474 12.6334 21.0474 11.367 21.8285 10.586L20.4142 9.17176C18.8521 10.7339 18.8522 13.2665 20.4143 14.8286L21.8285 13.4144ZM30.5858 22.1718L21.8285 13.4144L20.4143 14.8286L29.1716 23.586L30.5858 22.1718ZM34 20.7575C34 22.5394 31.8458 23.4317 30.5858 22.1718L29.1716 23.586C31.6915 26.1058 36 24.3212 36 20.7575H34ZM34 3.24283V20.7575H36V3.24283H34ZM30.5858 1.82862C31.8458 0.568687 34 1.46102 34 3.24283H36C36 -0.320788 31.6915 -2.10546 29.1716 0.414403L30.5858 1.82862ZM21.8285 10.586L30.5858 1.82862L29.1716 0.414403L20.4142 9.17176L21.8285 10.586ZM41.8285 13.4144C41.0474 12.6334 41.0474 11.367 41.8285 10.586L40.4142 9.17177C38.8521 10.7339 38.8522 13.2665 40.4142 14.8286L41.8285 13.4144ZM50.5858 22.1718L41.8285 13.4144L40.4142 14.8286L49.1716 23.586L50.5858 22.1718ZM54 20.7575C54 22.5394 51.8458 23.4317 50.5858 22.1718L49.1716 23.586C51.6915 26.1058 56 24.3212 56 20.7575H54ZM54 3.24283V20.7575H56V3.24283H54ZM50.5858 1.82862C51.8458 0.568687 54 1.46102 54 3.24283H56C56 -0.320789 51.6915 -2.10545 49.1716 0.414404L50.5858 1.82862ZM41.8285 10.586L50.5858 1.82862L49.1716 0.414405L40.4142 9.17177L41.8285 10.586Z" fill="white" mask="url(#path-1-inside-1)"/>
<defs>
<linearGradient id="paint0_linear" x1="27.6214" y1="0.236816" x2="27.6214" y2="23.7636" gradientUnits="userSpaceOnUse">
<stop stop-color="#7DE3B8"/>
<stop offset="1" stop-color="#2E965E"/>
</linearGradient>
</defs>
</svg>
