<svg width="56" height="32" viewBox="0 0 56 32" fill="none" xmlns="http://www.w3.org/2000/svg">
<path d="M13.5251 14.2322L4.76776 5.47487C3.19285 3.89996 0.5 5.01538 0.5 7.24264V24.7574C0.5 26.9846 3.19286 28.1 4.76777 26.5251L13.5251 17.7678C14.5014 16.7915 14.5014 15.2085 13.5251 14.2322Z" fill="url(#paint0_linear)" stroke="white"/>
<path d="M33.5251 14.2322L24.7678 5.47487C23.1929 3.89996 20.5 5.01538 20.5 7.24264V24.7574C20.5 26.9846 23.1929 28.1 24.7678 26.5251L33.5251 17.7678C34.5014 16.7915 34.5014 15.2085 33.5251 14.2322Z" fill="url(#paint1_linear)" stroke="white"/>
<path d="M53.5251 14.2322L44.7678 5.47487C43.1929 3.89996 40.5 5.01538 40.5 7.24264V24.7574C40.5 26.9846 43.1929 28.1 44.7678 26.5251L53.5251 17.7678C54.5014 16.7915 54.5014 15.2085 53.5251 14.2322Z" fill="url(#paint2_linear)" stroke="white"/>
<defs>
<linearGradient id="paint0_linear" x1="8" y1="0" x2="8" y2="32" gradientUnits="userSpaceOnUse">
<stop stop-color="#7DE3B8"/>
<stop offset="1" stop-color="#2E965E"/>
</linearGradient>
<linearGradient id="paint1_linear" x1="28" y1="0" x2="28" y2="32" gradientUnits="userSpaceOnUse">
<stop stop-color="#7DE3B8"/>
<stop offset="1" stop-color="#2E965E"/>
</linearGradient>
<linearGradient id="paint2_linear" x1="48" y1="0" x2="48" y2="32" gradientUnits="userSpaceOnUse">
<stop stop-color="#7DE3B8"/>
<stop offset="1" stop-color="#2E965E"/>
</linearGradient>
</defs>
</svg>
