<svg width="70" height="70" viewBox="0 0 70 70" fill="none" xmlns="http://www.w3.org/2000/svg">
<g filter="url(#filter0_dd)">
<path d="M18.5355 33.1213C17.364 31.9497 17.364 30.0503 18.5355 28.8787L32.8787 14.5355C34.0503 13.364 35.9497 13.364 37.1213 14.5355L51.4645 28.8787C52.636 30.0503 52.636 31.9497 51.4645 33.1213L37.1213 47.4645C35.9497 48.636 34.0503 48.636 32.8787 47.4645L18.5355 33.1213Z" fill="url(#paint0_linear)" stroke="white" stroke-width="2"/>
<path d="M31.3758 25.6313C31.3563 24.7051 30.7241 23.9996 29.6976 23.9996C28.671 23.9996 27.9999 24.7051 27.9999 25.6313C27.9999 26.5383 28.6512 27.2641 29.6586 27.2641H29.6778C30.7241 27.2641 31.3758 26.5383 31.3758 25.6313Z" fill="white"/>
<path d="M31.1781 28.5534H28.1773V37.9997H31.1781V28.5534Z" fill="white"/>
<path d="M38.5451 28.3316C40.5198 28.3316 42.0002 29.682 42.0002 32.5835L42.0001 37.9997H38.9994V32.9459C38.9994 31.6765 38.5652 30.8103 37.4789 30.8103C36.6498 30.8103 36.156 31.3943 35.9391 31.9583C35.8598 32.1604 35.8403 32.4421 35.8403 32.7244V38H32.8392C32.8392 38 32.8787 29.4401 32.8392 28.5537H35.8403V29.8917C36.2386 29.2485 36.9519 28.3316 38.5451 28.3316Z" fill="white"/>
</g>
<defs>
<filter id="filter0_dd" x="-1" y="-1" width="72" height="72" filterUnits="userSpaceOnUse" color-interpolation-filters="sRGB">
<feFlood flood-opacity="0" result="BackgroundImageFix"/>
<feColorMatrix in="SourceAlpha" type="matrix" values="0 0 0 0 0 0 0 0 0 0 0 0 0 0 0 0 0 0 127 0" result="hardAlpha"/>
<feOffset dy="1"/>
<feGaussianBlur stdDeviation="0.5"/>
<feColorMatrix type="matrix" values="0 0 0 0 0.215686 0 0 0 0 0.376471 0 0 0 0 0.427451 0 0 0 0.08 0"/>
<feBlend mode="normal" in2="BackgroundImageFix" result="effect1_dropShadow"/>
<feColorMatrix in="SourceAlpha" type="matrix" values="0 0 0 0 0 0 0 0 0 0 0 0 0 0 0 0 0 0 127 0" result="hardAlpha"/>
<feOffset dy="4"/>
<feGaussianBlur stdDeviation="8"/>
<feColorMatrix type="matrix" values="0 0 0 0 0.215686 0 0 0 0 0.376471 0 0 0 0 0.427451 0 0 0 0.16 0"/>
<feBlend mode="normal" in2="effect1_dropShadow" result="effect2_dropShadow"/>
<feBlend mode="normal" in="SourceGraphic" in2="effect2_dropShadow" result="shape"/>
</filter>
<linearGradient id="paint0_linear" x1="35" y1="11" x2="35" y2="51" gradientUnits="userSpaceOnUse">
<stop stop-color="#7DE3B8"/>
<stop offset="1" stop-color="#2E965E"/>
</linearGradient>
</defs>
</svg>
